<svg fill="currentColor" viewBox="0 0 20 20" xmlns="http://www.w3.org/2000/svg">
  <path clip-rule="evenodd" d="M10 9a3 3 0 100-6 3 3 0 000 6zm-7 9a7 7 0 1114 0H3z" fill-rule="evenodd"/>
  <path d="M6.605 13.688a.5.5 0 01.707-.707 4.5 4.5 0 006.364 0 .5.5 0 01.707.707 5.5 5.5 0 01-7.778 0z"/>
  <path d="M3.732 11.268a.5.5 0 01.707-.707 7.5 7.5 0 0010.607 0 .5.5 0 01.707.707 8.5 8.5 0 01-11.02 0 .502.502 0 01-.001-.001zM1.121 8.146a.5.5 0 01.707-.707c3.453-3.453 9.013-3.453 12.466 0a.5.5 0 01-.707.707c-2.94-2.94-7.819-2.94-10.759 0a.5.5 0 01-.707-.707A.5.5 0 011.12 8.146z"/>
</svg>
