<svg fill="none" stroke="currentColor" stroke-width="1.5" viewBox="0 0 24 24" xmlns="http://www.w3.org/2000/svg">
  <path d="M9.813 15.904L9 18.75l-.813-2.846a4.5 4.5 0 00-3.09-3.09L1.25 12l2.846-.813a4.5 4.5 0 003.09-3.09L9 5.25l.813 2.846a4.5 4.5 0 003.09 3.09L15.75 12l-2.846.813a4.5 4.5 0 00-3.09 3.09zM18.25 12L17 13.75l-1.25-1.75L13.5 12l1.25-1.25L16 9l1.25 1.75L18.25 12zM16 16.75l.813 2.846L15 18.75l-.813 2.846L13.375 18.75l-1.5.938L14.063 18l-1.188-1.5.938-1.5 1.188 1.5-1.188 1.5z" stroke-linecap="round" stroke-linejoin="round"/>
</svg>
